<svg width="640" height="360" viewBox="0 0 640 360" fill="none" xmlns="http://www.w3.org/2000/svg">
<rect width="640" height="360" fill="black"/>
<path fill-rule="evenodd" clip-rule="evenodd" d="M255.971 281.217V102.417C258.479 102.443 260.878 102.527 262.854 102.698C270.845 103.389 276.332 105.919 280.486 109.387C284.812 112.999 288.525 118.338 291.674 125.803C298.214 141.308 300.882 162.155 303.791 185.998L303.954 187.34C305.797 202.459 307.791 218.827 311.498 234C311.498 234 315.5 226 324.5 223.5C333.5 221 340.266 225.5 340.266 225.5C337.315 212.895 335.482 198.283 333.541 182.369L333.39 181.128C330.679 158.888 327.641 133.957 319.289 114.155C314.914 103.782 308.758 93.9486 299.696 86.3817C290.461 78.6709 279.042 74.0144 265.436 72.8382C260.091 72.3761 253.635 72.3942 248.873 72.4936C246.417 72.5449 244.261 72.6217 242.716 72.6858C241.942 72.7179 241.317 72.747 240.879 72.7684C240.66 72.7791 240.488 72.7879 240.367 72.7942L240.224 72.8018L240.162 72.8052L226 73.5848V281.217H255.971ZM343 235.494C343 235.494 334.5 228.5 326.5 231C318.5 233.5 314.268 244 314.268 244C315.385 247.561 316.626 251.017 318.014 254.332C322.375 264.743 328.504 274.622 337.521 282.263C346.709 290.05 358.094 294.827 371.697 296.134C377.66 296.707 384.871 296.685 390.193 296.561C392.938 296.498 395.347 296.402 397.074 296.323C397.939 296.283 398.638 296.247 399.127 296.22C399.372 296.207 399.564 296.196 399.7 296.188L399.859 296.179L399.92 296.175L399.928 296.175L414 295.315V72.7825H373.13V102.754H384.029V266.661C380.597 266.656 377.234 266.557 374.563 266.3C366.588 265.534 361.083 262.945 356.898 259.398C352.541 255.706 348.812 250.284 345.659 242.754C344.692 240.447 343.81 238.024 343 235.494Z" fill="url(#paint0_linear_29_15)"/>
<circle cx="392.203" cy="50.9855" r="14.9855" fill="url(#paint1_linear_29_15)"/>
<path d="M231.333 323.873V308.423H234.756V314.798H241.705V308.423H245.12V323.873H241.705V317.491H234.756V323.873H231.333Z" fill="url(#paint2_linear_29_15)"/>
<path d="M250.732 323.873H247.064L252.653 308.423H257.064L262.645 323.873H258.977L254.922 311.954H254.795L250.732 323.873ZM250.503 317.8H259.167V320.35H250.503V317.8Z" fill="url(#paint3_linear_29_15)"/>
<path d="M278.117 313.832H274.655C274.592 313.405 274.462 313.025 274.267 312.693C274.072 312.356 273.822 312.069 273.516 311.833C273.211 311.597 272.858 311.416 272.457 311.29C272.062 311.164 271.632 311.101 271.169 311.101C270.331 311.101 269.601 311.3 268.979 311.697C268.357 312.089 267.875 312.663 267.532 313.417C267.19 314.166 267.018 315.077 267.018 316.148C267.018 317.249 267.19 318.175 267.532 318.924C267.88 319.673 268.365 320.239 268.987 320.621C269.609 321.003 270.328 321.195 271.145 321.195C271.603 321.195 272.028 321.137 272.418 321.021C272.813 320.905 273.163 320.737 273.469 320.516C273.775 320.289 274.028 320.015 274.228 319.693C274.433 319.372 274.576 319.004 274.655 318.592L278.117 318.607C278.028 319.316 277.804 320 277.445 320.659C277.092 321.313 276.615 321.899 276.014 322.417C275.419 322.93 274.707 323.337 273.88 323.639C273.058 323.935 272.128 324.084 271.09 324.084C269.646 324.084 268.354 323.772 267.216 323.148C266.083 322.525 265.187 321.622 264.528 320.44C263.875 319.258 263.548 317.828 263.548 316.148C263.548 314.463 263.88 313.03 264.544 311.848C265.208 310.666 266.109 309.766 267.248 309.147C268.386 308.524 269.667 308.212 271.09 308.212C272.028 308.212 272.897 308.338 273.698 308.589C274.505 308.841 275.219 309.208 275.84 309.691C276.462 310.168 276.968 310.754 277.358 311.448C277.754 312.142 278.006 312.937 278.117 313.832Z" fill="url(#paint4_linear_29_15)"/>
<path d="M280.572 323.873V308.423H283.995V315.235H284.208L290.034 308.423H294.137L288.129 315.341L294.208 323.873H290.113L285.678 317.521L283.995 319.482V323.873H280.572Z" fill="url(#paint5_linear_29_15)"/>
<path d="M295.919 323.873V308.423H306.638V311.116H299.342V314.798H305.927V317.491H299.342V323.873H295.919Z" fill="url(#paint6_linear_29_15)"/>
<path d="M308.941 323.873V308.423H319.85V311.116H312.364V314.798H319.288V317.491H312.364V321.18H319.881V323.873H308.941Z" fill="url(#paint7_linear_29_15)"/>
<path d="M331.354 312.866C331.29 312.258 331.019 311.785 330.539 311.448C330.06 311.111 329.409 310.943 328.587 310.943C328.028 310.943 327.556 311.018 327.172 311.169C326.787 311.315 326.492 311.519 326.286 311.78C326.086 312.042 325.986 312.338 325.986 312.67C325.975 312.947 326.036 313.188 326.168 313.394C326.305 313.601 326.492 313.779 326.729 313.93C326.966 314.076 327.24 314.204 327.551 314.315C327.862 314.42 328.194 314.511 328.547 314.586L330.002 314.918C330.708 315.069 331.356 315.27 331.946 315.522C332.537 315.773 333.048 316.083 333.48 316.45C333.912 316.817 334.247 317.249 334.484 317.747C334.726 318.245 334.85 318.816 334.855 319.46C334.85 320.405 334.597 321.225 334.097 321.919C333.601 322.608 332.884 323.143 331.946 323.526C331.014 323.903 329.888 324.091 328.571 324.091C327.264 324.091 326.126 323.9 325.156 323.518C324.192 323.136 323.438 322.57 322.895 321.821C322.358 321.066 322.076 320.133 322.049 319.022H325.361C325.398 319.54 325.554 319.973 325.828 320.32C326.107 320.662 326.479 320.921 326.943 321.097C327.412 321.268 327.941 321.353 328.531 321.353C329.111 321.353 329.614 321.273 330.041 321.112C330.473 320.951 330.808 320.727 331.045 320.44C331.282 320.154 331.401 319.824 331.401 319.452C331.401 319.105 331.293 318.813 331.077 318.577C330.866 318.341 330.555 318.139 330.144 317.973C329.738 317.808 329.24 317.657 328.65 317.521L326.887 317.098C325.522 316.782 324.445 316.286 323.654 315.612C322.864 314.938 322.471 314.031 322.476 312.889C322.471 311.954 322.732 311.136 323.259 310.437C323.791 309.738 324.521 309.193 325.448 308.8C326.376 308.408 327.43 308.212 328.61 308.212C329.812 308.212 330.861 308.408 331.757 308.8C332.658 309.193 333.359 309.738 333.859 310.437C334.36 311.136 334.618 311.946 334.634 312.866H331.354Z" fill="url(#paint8_linear_29_15)"/>
<path d="M336.541 311.116V308.423H349.837V311.116H344.881V323.873H341.498V311.116H336.541Z" fill="url(#paint9_linear_29_15)"/>
<path d="M357.084 323.873V321.519L362.847 316.427C363.337 315.974 363.748 315.567 364.08 315.205C364.418 314.843 364.673 314.488 364.847 314.141C365.021 313.789 365.108 313.41 365.108 313.002C365.108 312.55 365 312.16 364.784 311.833C364.568 311.501 364.273 311.247 363.898 311.071C363.524 310.89 363.1 310.799 362.626 310.799C362.13 310.799 361.698 310.895 361.329 311.086C360.96 311.277 360.676 311.551 360.476 311.908C360.275 312.265 360.175 312.69 360.175 313.183H356.926C356.926 312.172 357.166 311.295 357.646 310.551C358.125 309.806 358.797 309.23 359.661 308.823C360.526 308.416 361.522 308.212 362.649 308.212C363.809 308.212 364.818 308.408 365.677 308.8C366.541 309.188 367.213 309.726 367.693 310.415C368.172 311.104 368.412 311.893 368.412 312.783C368.412 313.367 368.291 313.943 368.049 314.511C367.811 315.079 367.387 315.71 366.776 316.404C366.165 317.093 365.303 317.921 364.191 318.886L361.827 321.097V321.202H368.626V323.873H357.084Z" fill="url(#paint10_linear_29_15)"/>
<path d="M377.454 324.212C376.094 324.207 374.924 323.888 373.944 323.254C372.969 322.62 372.218 321.703 371.691 320.501C371.169 319.299 370.911 317.853 370.916 316.163C370.916 314.478 371.177 313.042 371.699 311.856C372.226 310.669 372.977 309.766 373.952 309.147C374.932 308.524 376.099 308.212 377.454 308.212C378.808 308.212 379.973 308.524 380.948 309.147C381.928 309.771 382.681 310.676 383.208 311.863C383.735 313.045 383.996 314.478 383.991 316.163C383.991 317.858 383.728 319.306 383.201 320.508C382.679 321.71 381.93 322.628 380.956 323.262C379.981 323.895 378.813 324.212 377.454 324.212ZM377.454 321.504C378.381 321.504 379.122 321.059 379.675 320.169C380.228 319.279 380.502 317.943 380.497 316.163C380.497 314.991 380.371 314.016 380.118 313.236C379.87 312.457 379.517 311.871 379.058 311.478C378.605 311.086 378.07 310.89 377.454 310.89C376.531 310.89 375.794 311.33 375.24 312.21C374.687 313.09 374.408 314.408 374.402 316.163C374.402 317.35 374.526 318.341 374.774 319.135C375.027 319.925 375.382 320.518 375.841 320.915C376.299 321.308 376.837 321.504 377.454 321.504Z" fill="url(#paint11_linear_29_15)"/>
<path d="M386.432 323.873V321.519L392.195 316.427C392.685 315.974 393.096 315.567 393.428 315.205C393.765 314.843 394.021 314.488 394.194 314.141C394.368 313.789 394.455 313.41 394.455 313.002C394.455 312.55 394.347 312.16 394.131 311.833C393.915 311.501 393.62 311.247 393.246 311.071C392.872 310.89 392.447 310.799 391.973 310.799C391.478 310.799 391.046 310.895 390.677 311.086C390.308 311.277 390.023 311.551 389.823 311.908C389.623 312.265 389.523 312.69 389.523 313.183H386.274C386.274 312.172 386.513 311.295 386.993 310.551C387.473 309.806 388.144 309.23 389.009 308.823C389.873 308.416 390.869 308.212 391.997 308.212C393.156 308.212 394.165 308.408 395.024 308.8C395.889 309.188 396.561 309.726 397.04 310.415C397.52 311.104 397.76 311.893 397.76 312.783C397.76 313.367 397.638 313.943 397.396 314.511C397.159 315.079 396.735 315.71 396.123 316.404C395.512 317.093 394.65 317.921 393.538 318.886L391.175 321.097V321.202H397.973V323.873H386.432Z" fill="url(#paint12_linear_29_15)"/>
<path d="M406.437 324.084C405.257 324.084 404.206 323.89 403.283 323.503C402.366 323.111 401.642 322.573 401.109 321.889C400.582 321.2 400.311 320.405 400.295 319.505H403.742C403.763 319.882 403.892 320.214 404.129 320.501C404.372 320.782 404.693 321.001 405.094 321.157C405.494 321.313 405.945 321.391 406.445 321.391C406.967 321.391 407.428 321.303 407.829 321.127C408.229 320.951 408.543 320.707 408.769 320.395C408.996 320.083 409.109 319.724 409.109 319.316C409.109 318.904 408.988 318.539 408.746 318.222C408.508 317.901 408.166 317.649 407.718 317.468C407.275 317.287 406.748 317.196 406.137 317.196H404.627V314.798H406.137C406.653 314.798 407.109 314.712 407.505 314.541C407.905 314.37 408.216 314.134 408.437 313.832C408.659 313.525 408.769 313.168 408.769 312.761C408.769 312.374 408.672 312.034 408.477 311.742C408.287 311.446 408.018 311.214 407.671 311.048C407.328 310.882 406.927 310.799 406.469 310.799C406.005 310.799 405.581 310.88 405.196 311.041C404.812 311.197 404.503 311.421 404.271 311.712C404.04 312.004 403.916 312.346 403.9 312.738H400.619C400.635 311.848 400.901 311.064 401.418 310.385C401.934 309.706 402.63 309.175 403.505 308.793C404.385 308.406 405.378 308.212 406.485 308.212C407.602 308.212 408.58 308.406 409.418 308.793C410.255 309.18 410.906 309.703 411.37 310.362C411.839 311.016 412.071 311.75 412.066 312.565C412.071 313.43 411.789 314.151 411.22 314.73C410.656 315.308 409.921 315.675 409.014 315.831V315.952C410.205 316.098 411.112 316.492 411.734 317.136C412.361 317.775 412.672 318.574 412.667 319.535C412.672 320.415 412.406 321.197 411.868 321.881C411.336 322.565 410.601 323.103 409.663 323.495C408.725 323.888 407.649 324.084 406.437 324.084Z" fill="url(#paint13_linear_29_15)"/>
<defs>
<linearGradient id="paint0_linear_29_15" x1="236.899" y1="152.123" x2="430.197" y2="293.289" gradientUnits="userSpaceOnUse">
<stop stop-color="#EB5757"/>
<stop offset="1" stop-color="#5D5FEF"/>
</linearGradient>
<linearGradient id="paint1_linear_29_15" x1="378.955" y1="46.6527" x2="405.825" y2="70.0542" gradientUnits="userSpaceOnUse">
<stop stop-color="#EB5757"/>
<stop offset="1" stop-color="#5D5FEF"/>
</linearGradient>
<linearGradient id="paint2_linear_29_15" x1="208.667" y1="300.212" x2="424.667" y2="324.212" gradientUnits="userSpaceOnUse">
<stop stop-color="#EB5757"/>
<stop offset="0.536458" stop-color="#5D5FEF"/>
<stop offset="1" stop-color="#00939C"/>
</linearGradient>
<linearGradient id="paint3_linear_29_15" x1="208.667" y1="300.212" x2="424.667" y2="324.212" gradientUnits="userSpaceOnUse">
<stop stop-color="#EB5757"/>
<stop offset="0.536458" stop-color="#5D5FEF"/>
<stop offset="1" stop-color="#00939C"/>
</linearGradient>
<linearGradient id="paint4_linear_29_15" x1="208.667" y1="300.212" x2="424.667" y2="324.212" gradientUnits="userSpaceOnUse">
<stop stop-color="#EB5757"/>
<stop offset="0.536458" stop-color="#5D5FEF"/>
<stop offset="1" stop-color="#00939C"/>
</linearGradient>
<linearGradient id="paint5_linear_29_15" x1="208.667" y1="300.212" x2="424.667" y2="324.212" gradientUnits="userSpaceOnUse">
<stop stop-color="#EB5757"/>
<stop offset="0.536458" stop-color="#5D5FEF"/>
<stop offset="1" stop-color="#00939C"/>
</linearGradient>
<linearGradient id="paint6_linear_29_15" x1="208.667" y1="300.212" x2="424.667" y2="324.212" gradientUnits="userSpaceOnUse">
<stop stop-color="#EB5757"/>
<stop offset="0.536458" stop-color="#5D5FEF"/>
<stop offset="1" stop-color="#00939C"/>
</linearGradient>
<linearGradient id="paint7_linear_29_15" x1="208.667" y1="300.212" x2="424.667" y2="324.212" gradientUnits="userSpaceOnUse">
<stop stop-color="#EB5757"/>
<stop offset="0.536458" stop-color="#5D5FEF"/>
<stop offset="1" stop-color="#00939C"/>
</linearGradient>
<linearGradient id="paint8_linear_29_15" x1="208.667" y1="300.212" x2="424.667" y2="324.212" gradientUnits="userSpaceOnUse">
<stop stop-color="#EB5757"/>
<stop offset="0.536458" stop-color="#5D5FEF"/>
<stop offset="1" stop-color="#00939C"/>
</linearGradient>
<linearGradient id="paint9_linear_29_15" x1="208.667" y1="300.212" x2="424.667" y2="324.212" gradientUnits="userSpaceOnUse">
<stop stop-color="#EB5757"/>
<stop offset="0.536458" stop-color="#5D5FEF"/>
<stop offset="1" stop-color="#00939C"/>
</linearGradient>
<linearGradient id="paint10_linear_29_15" x1="208.667" y1="300.212" x2="424.667" y2="324.212" gradientUnits="userSpaceOnUse">
<stop stop-color="#EB5757"/>
<stop offset="0.536458" stop-color="#5D5FEF"/>
<stop offset="1" stop-color="#00939C"/>
</linearGradient>
<linearGradient id="paint11_linear_29_15" x1="208.667" y1="300.212" x2="424.667" y2="324.212" gradientUnits="userSpaceOnUse">
<stop stop-color="#EB5757"/>
<stop offset="0.536458" stop-color="#5D5FEF"/>
<stop offset="1" stop-color="#00939C"/>
</linearGradient>
<linearGradient id="paint12_linear_29_15" x1="208.667" y1="300.212" x2="424.667" y2="324.212" gradientUnits="userSpaceOnUse">
<stop stop-color="#EB5757"/>
<stop offset="0.536458" stop-color="#5D5FEF"/>
<stop offset="1" stop-color="#00939C"/>
</linearGradient>
<linearGradient id="paint13_linear_29_15" x1="208.667" y1="300.212" x2="424.667" y2="324.212" gradientUnits="userSpaceOnUse">
<stop stop-color="#EB5757"/>
<stop offset="0.536458" stop-color="#5D5FEF"/>
<stop offset="1" stop-color="#00939C"/>
</linearGradient>
</defs>
</svg>
